<!-- <?xml-stylesheet type="text/css" href="style.css"?> -->
<svg xmlns="http://www.w3.org/2000/svg" xml:space="preserve" viewBox="0 0 512 512">
	<g>
		<!-- Big outer circle -->
		<circle class="logo-bg" cx="256" cy="256" r="256" style="fill:#31bafd"/>	
		<!-- Left half dot -->
		<circle  cx="256" cy="113.8" r="16.4" style="fill:#ff6472"/>	
		<!-- Small outer circle-->
		<path class="logo-bg" d="M261 512c137-3 248-114 251-251l-99-99-40 46-106-106-101 81 81 81-148 86 162 162z" style="fill:#2b9ed8"/>  
		<!-- Right half dot -->
		<path d="M256 97v33a16 16 0 1 0 0-33z" style="fill:#d24146"/>	
		<!-- Left side line -->
		<path d="m140 196 4 6 112-84v-8z" style="fill:#cfdbe6"/>	
		<!-- Right side line -->
		<path d="M256 109v9l112 84 4-6z" style="fill:#b8c9d9"/>	
		<!-- Left side sign -->
		<path d="M99 162h314v188H99z" style="fill:#324a5e"/> 
		<!-- Right side sign -->
		<path d="M256 162h157v188H256z" style="fill:#2b3b4e"/> 
		<!-- J and half of O-->
		<path d="M182 318h-23c-12 0-22-10-22-22v-12a5 5 0 1 1 10 0v12c0 6 6 12 12 12h23c7 0 12-6 12-12v-97a5 5 0 1 1 10 0v97c0 12-10 22-22 22zm84 0h-20c-13 0-24-10-24-23v-78c0-13 11-23 24-23h20c13 0 24 10 24 23v78c0 13-11 23-24 23zm-20-114c-8 0-13 6-13 13v78c0 7 5 13 13 13h20c8 0 13-6 13-13v-78c0-7-5-13-13-13h-20z" style="fill:#d24146"/>	
		<!-- half of O and B-->
		<path d="M266 194h-10v10h10c8 0 13 6 13 13v78c0 7-5 13-13 13h-10v10h10c13 0 24-10 24-23v-78c0-13-11-23-24-23zm109 43v-19c0-13-11-24-24-24h-38c-3 0-5 2-5 5v114c0 3 2 5 5 5h38c13 0 24-11 24-24v-19c0-8-4-15-9-19 5-4 9-11 9-19zm-10 38v19c0 8-7 14-14 14h-33v-47h33c7 0 14 6 14 14zm-47-24v-47h33c7 0 14 6 14 14v19c0 8-7 14-14 14h-33z" style="fill:#d24146"/> 
	</g>
</svg>
